<svg width="420" height="80" viewBox="0 0 420 80" fill="none" xmlns="http://www.w3.org/2000/svg">
<path d="M19.8388 48.0846L7.15392 49.8409L12.3386 38.1315L19.8388 48.0846Z" stroke="white" stroke-width="2"/>
<rect x="33.7363" y="20.0704" width="15.5181" height="28.1782" rx="5" transform="rotate(53 33.7363 20.0704)" stroke="white" stroke-width="2"/>
<rect x="41.2607" y="14.4005" width="15.5181" height="8.30476" rx="4" transform="rotate(53 41.2607 14.4005)" stroke="white" stroke-width="2"/>
<rect x="5.51074" y="51.0676" width="45.1761" height="1.61343" fill="white"/>
<rect x="5.51074" y="51.0676" width="45.1761" height="1.61343" stroke="white"/>
<path d="M64.096 53V27.08H67.156L82.024 48.896L81.592 48.968V27.08H84.4V53H81.34L66.472 31.184L66.904 31.112V53H64.096ZM98.0198 53.36C96.2198 53.36 94.6358 52.94 93.2678 52.1C91.8998 51.26 90.8318 50.12 90.0638 48.68C89.3198 47.216 88.9478 45.572 88.9478 43.748C88.9478 41.9 89.3318 40.268 90.0998 38.852C90.8678 37.436 91.9238 36.32 93.2678 35.504C94.6358 34.688 96.2198 34.28 98.0198 34.28C99.8438 34.28 101.428 34.688 102.772 35.504C104.14 36.32 105.196 37.436 105.94 38.852C106.708 40.268 107.092 41.9 107.092 43.748C107.092 45.572 106.708 47.216 105.94 48.68C105.196 50.12 104.14 51.26 102.772 52.1C101.428 52.94 99.8438 53.36 98.0198 53.36ZM98.0198 50.912C99.2678 50.912 100.348 50.612 101.26 50.012C102.172 49.388 102.88 48.536 103.384 47.456C103.888 46.376 104.14 45.128 104.14 43.712C104.14 41.6 103.576 39.908 102.448 38.636C101.344 37.364 99.8678 36.728 98.0198 36.728C96.1958 36.728 94.7198 37.364 93.5918 38.636C92.4638 39.908 91.8998 41.6 91.8998 43.712C91.8998 45.128 92.1518 46.376 92.6558 47.456C93.1598 48.536 93.8678 49.388 94.7798 50.012C95.7158 50.612 96.7958 50.912 98.0198 50.912ZM118.579 53.324C116.539 53.324 115.051 52.868 114.115 51.956C113.203 51.02 112.747 49.676 112.747 47.924V30.356L115.627 29.276V47.888C115.627 48.92 115.891 49.676 116.419 50.156C116.947 50.636 117.811 50.876 119.011 50.876C119.491 50.876 119.899 50.852 120.235 50.804C120.595 50.732 120.883 50.648 121.099 50.552V53C120.859 53.096 120.511 53.168 120.055 53.216C119.623 53.288 119.131 53.324 118.579 53.324ZM108.967 37.088V34.64H121.099V37.088H108.967ZM131.943 53.36C130.191 53.36 128.643 52.952 127.299 52.136C125.955 51.296 124.899 50.156 124.131 48.716C123.363 47.276 122.979 45.62 122.979 43.748C122.979 41.876 123.351 40.232 124.095 38.816C124.863 37.376 125.931 36.26 127.299 35.468C128.667 34.676 130.239 34.28 132.015 34.28C133.719 34.28 135.195 34.652 136.443 35.396C137.715 36.14 138.687 37.184 139.359 38.528C140.055 39.872 140.403 41.456 140.403 43.28C140.403 43.52 140.391 43.748 140.367 43.964C140.367 44.18 140.343 44.42 140.295 44.684H125.139V42.272H138.531L137.595 43.604C137.595 41.396 137.103 39.704 136.119 38.528C135.159 37.328 133.791 36.728 132.015 36.728C130.191 36.728 128.715 37.364 127.587 38.636C126.483 39.884 125.931 41.576 125.931 43.712C125.931 45.896 126.483 47.648 127.587 48.968C128.715 50.264 130.215 50.912 132.087 50.912C133.263 50.912 134.295 50.66 135.183 50.156C136.071 49.628 136.719 48.884 137.127 47.924H139.863C139.263 49.604 138.255 50.936 136.839 51.92C135.447 52.88 133.815 53.36 131.943 53.36Z" fill="white"/>
<path d="M156.479 53.36C153.839 53.36 151.547 52.82 149.603 51.74C147.659 50.66 146.159 49.148 145.103 47.204C144.047 45.236 143.519 42.92 143.519 40.256C143.519 37.592 144.035 35.252 145.067 33.236C146.123 31.196 147.575 29.6 149.423 28.448C151.295 27.296 153.443 26.72 155.867 26.72C157.763 26.72 159.479 27.08 161.015 27.8C162.575 28.52 163.847 29.516 164.831 30.788C165.839 32.06 166.451 33.536 166.667 35.216H163.715C163.475 33.44 162.647 32.024 161.231 30.968C159.839 29.912 158.087 29.384 155.975 29.384C154.079 29.384 152.423 29.84 151.007 30.752C149.591 31.64 148.487 32.888 147.695 34.496C146.927 36.104 146.543 38 146.543 40.184C146.543 42.368 146.939 44.252 147.731 45.836C148.547 47.396 149.711 48.596 151.223 49.436C152.759 50.276 154.595 50.696 156.731 50.696C158.195 50.696 159.503 50.492 160.655 50.084C161.807 49.652 162.851 48.992 163.787 48.104L166.739 49.184C165.419 50.576 163.895 51.62 162.167 52.316C160.463 53.012 158.567 53.36 156.479 53.36ZM163.787 49.184V40.796L164.903 41.912H156.695V39.32H166.739V49.184H163.787ZM179.758 53.36C177.958 53.36 176.374 52.94 175.006 52.1C173.638 51.26 172.57 50.12 171.802 48.68C171.058 47.216 170.686 45.572 170.686 43.748C170.686 41.9 171.07 40.268 171.838 38.852C172.606 37.436 173.662 36.32 175.006 35.504C176.374 34.688 177.958 34.28 179.758 34.28C181.582 34.28 183.166 34.688 184.51 35.504C185.878 36.32 186.934 37.436 187.678 38.852C188.446 40.268 188.83 41.9 188.83 43.748C188.83 45.572 188.446 47.216 187.678 48.68C186.934 50.12 185.878 51.26 184.51 52.1C183.166 52.94 181.582 53.36 179.758 53.36ZM179.758 50.912C181.006 50.912 182.086 50.612 182.998 50.012C183.91 49.388 184.618 48.536 185.122 47.456C185.626 46.376 185.878 45.128 185.878 43.712C185.878 41.6 185.314 39.908 184.186 38.636C183.082 37.364 181.606 36.728 179.758 36.728C177.934 36.728 176.458 37.364 175.33 38.636C174.202 39.908 173.638 41.6 173.638 43.712C173.638 45.128 173.89 46.376 174.394 47.456C174.898 48.536 175.606 49.388 176.518 50.012C177.454 50.612 178.534 50.912 179.758 50.912Z" fill="#20C030"/>
<rect x="204" y="14" width="3" height="48" fill="white"/>
<path d="M300.04 52V49.552H308.32C309.904 49.552 311.164 49.12 312.1 48.256C313.036 47.392 313.504 46.228 313.504 44.764C313.504 43.204 313.012 41.956 312.028 41.02C311.044 40.084 309.724 39.616 308.068 39.616H300.04V37.24H307.672C309.304 37.24 310.576 36.844 311.488 36.052C312.4 35.26 312.856 34.144 312.856 32.704C312.856 31.36 312.424 30.328 311.56 29.608C310.72 28.888 309.484 28.528 307.852 28.528H300.04V26.08H308.104C310.48 26.08 312.352 26.644 313.72 27.772C315.112 28.9 315.808 30.436 315.808 32.38C315.808 33.604 315.532 34.696 314.98 35.656C314.428 36.616 313.672 37.372 312.712 37.924C311.752 38.452 310.648 38.716 309.4 38.716L309.58 37.96C310.9 37.96 312.076 38.272 313.108 38.896C314.164 39.52 314.992 40.372 315.592 41.452C316.216 42.508 316.528 43.72 316.528 45.088C316.528 46.456 316.192 47.668 315.52 48.724C314.872 49.756 313.948 50.56 312.748 51.136C311.548 51.712 310.156 52 308.572 52H300.04ZM298.096 52V26.08H301.048V52H298.096ZM320.983 52V26.08H325.519L334.879 51.064H333.511L342.799 26.08H347.407V52H344.491V27.628H344.887L335.851 52H332.323L323.287 27.844H323.683V52H320.983ZM362.392 52.324C359.368 52.324 356.956 51.58 355.156 50.092C353.38 48.604 352.336 46.48 352.024 43.72H354.904C355.168 45.712 355.924 47.212 357.172 48.22C358.42 49.228 360.148 49.732 362.356 49.732C364.228 49.732 365.632 49.384 366.568 48.688C367.528 47.968 368.008 46.924 368.008 45.556C368.008 44.38 367.684 43.444 367.036 42.748C366.388 42.052 365.38 41.476 364.012 41.02L359.656 39.508C357.448 38.74 355.816 37.816 354.76 36.736C353.704 35.632 353.176 34.24 353.176 32.56C353.176 31.168 353.524 29.968 354.22 28.96C354.916 27.928 355.9 27.124 357.172 26.548C358.444 25.972 359.92 25.684 361.6 25.684C364.192 25.684 366.268 26.368 367.828 27.736C369.388 29.08 370.288 31 370.528 33.496H367.648C367.336 31.696 366.688 30.376 365.704 29.536C364.744 28.696 363.352 28.276 361.528 28.276C359.8 28.276 358.456 28.624 357.496 29.32C356.536 30.016 356.056 31 356.056 32.272C356.056 33.352 356.392 34.216 357.064 34.864C357.736 35.512 358.78 36.076 360.196 36.556L364.84 38.176C366.856 38.872 368.368 39.82 369.376 41.02C370.384 42.196 370.888 43.696 370.888 45.52C370.888 47.68 370.144 49.36 368.656 50.56C367.192 51.736 365.104 52.324 362.392 52.324ZM386.49 52.36C384.714 52.36 383.07 52.036 381.558 51.388C380.07 50.716 378.774 49.792 377.67 48.616C376.566 47.416 375.714 46.012 375.114 44.404C374.514 42.772 374.214 40.984 374.214 39.04C374.214 37.096 374.514 35.32 375.114 33.712C375.714 32.08 376.554 30.676 377.634 29.5C378.738 28.3 380.034 27.376 381.522 26.728C383.034 26.056 384.678 25.72 386.454 25.72C388.398 25.72 390.138 26.116 391.674 26.908C393.234 27.7 394.506 28.816 395.49 30.256C396.498 31.696 397.122 33.376 397.362 35.296H394.41C394.122 33.16 393.27 31.48 391.854 30.256C390.462 29.008 388.674 28.384 386.49 28.384C384.642 28.384 383.022 28.84 381.63 29.752C380.238 30.64 379.158 31.888 378.39 33.496C377.622 35.08 377.238 36.928 377.238 39.04C377.238 41.152 377.622 43.012 378.39 44.62C379.158 46.204 380.238 47.452 381.63 48.364C383.022 49.252 384.63 49.696 386.454 49.696C388.686 49.696 390.51 49.072 391.926 47.824C393.366 46.576 394.218 44.896 394.482 42.784H397.434C397.194 44.704 396.57 46.384 395.562 47.824C394.578 49.264 393.306 50.38 391.746 51.172C390.21 51.964 388.458 52.36 386.49 52.36ZM402.194 52V26.08H405.146V52H402.194ZM403.706 52V49.408H419.546V52H403.706ZM403.706 39.796V37.204H418.25V39.796H403.706ZM403.706 28.672V26.08H419.258V28.672H403.706Z" fill="white"/>
<path d="M252.701 0.0976776C253.922 -0.105857 255.204 0.0841086 256.452 0.00947912C256.805 0.728636 257.104 1.47493 257.348 2.24158C257.599 3.26604 257.402 4.38548 257.769 5.38959C258.433 6.22408 259.953 6.27157 260.625 5.41672C261.188 4.39905 261.263 3.15749 262.002 2.23479C262.389 1.7531 262.674 1.10178 263.264 0.850757C264.411 1.06108 265.55 1.37316 266.65 1.76666C267.023 2.25515 266.887 2.9336 266.989 3.5035C267.185 4.73149 266.67 5.89842 266.582 7.09928C266.819 8.02197 267.891 8.47653 268.773 8.34763C269.479 8.25943 269.764 7.53349 270.137 7.03822C270.822 5.88485 271.846 4.84683 273.061 4.30407C274.153 4.81969 275.225 5.41672 276.202 6.1291C276.284 6.67864 276.114 7.2214 276.046 7.76416C275.917 9.10071 275.042 10.1659 274.628 11.4074C274.947 12.4048 276.046 13.2596 277.111 12.8865C278.115 12.2826 278.821 11.2514 279.927 10.8104C280.497 10.5797 281.046 10.1862 281.677 10.2201C282.512 10.8036 283.149 11.6245 283.889 12.3166C284.595 12.8729 283.882 13.7142 283.665 14.3451C283.217 15.546 282.098 16.2991 281.474 17.3846C281.202 18.4497 282.308 19.5828 283.367 19.5556C284.432 19.2367 285.32 18.4837 286.433 18.3005C287.084 18.1919 287.736 18.0427 288.401 18.0291C289.032 18.7347 289.384 19.6302 289.907 20.4172C290.07 20.7633 290.436 21.1907 290.165 21.5638C289.52 22.4255 288.876 23.3346 287.932 23.8841C287.397 24.2776 286.738 24.5694 286.345 25.1257C285.999 26.1094 286.677 27.3442 287.681 27.5817C288.971 27.5545 290.212 26.9304 291.501 27.2221C292.003 27.3374 292.621 27.2085 293.028 27.5545C293.401 28.6875 293.74 29.8409 293.937 31.0146C293.53 31.5845 292.885 31.917 292.336 32.3308C291.393 33.0228 290.124 33.0364 289.181 33.7149C288.584 34.3865 288.835 35.4246 289.303 36.0894C289.751 36.7136 290.612 36.5711 291.284 36.639C292.553 36.6525 293.781 37.1139 294.893 37.6906C295.117 38.9186 294.907 40.2076 294.982 41.4628C294.208 41.8291 293.414 42.1548 292.593 42.3922C291.657 42.5347 290.694 42.4804 289.771 42.6975C288.794 43.2199 288.706 44.7668 289.459 45.5267C290.368 46.1373 291.535 46.1848 292.444 46.7886C292.98 47.1482 293.509 47.5077 293.984 47.9487C294.283 48.1998 294.039 48.6408 294.011 48.9664C293.76 49.8552 293.577 50.7711 293.238 51.6259C293.163 51.6734 293.007 51.7752 292.933 51.8227C291.745 52.0194 290.504 52.1348 289.323 51.8159C288.699 51.7616 287.96 51.341 287.403 51.8091C286.684 52.3722 286.365 53.5256 286.874 54.3262C287.688 55.1199 288.835 55.5135 289.554 56.4158C289.934 56.8771 290.334 57.3317 290.653 57.8405C290.755 58.1933 290.47 58.4986 290.334 58.8107C289.846 59.5977 289.466 60.4594 288.882 61.1785C288.245 61.321 287.593 61.0496 286.956 60.9953C285.734 60.8461 284.791 59.9573 283.611 59.6791C282.539 59.7334 281.684 61.0157 282.064 62.0266C282.607 63.0307 283.624 63.6956 284.099 64.7472C284.357 65.3713 284.791 65.9751 284.771 66.6807C284.208 67.5152 283.367 68.1394 282.681 68.8857C282.132 69.5981 281.29 68.8857 280.66 68.6754C279.452 68.2208 278.699 67.0946 277.606 66.4704C276.555 66.199 275.395 67.3117 275.469 68.3769C275.727 69.4556 276.535 70.3308 276.704 71.4435C276.806 72.088 276.969 72.7393 276.955 73.3974C276.324 74.0148 275.463 74.3065 274.743 74.8018C274.37 74.9782 273.997 75.3445 273.556 75.236C272.986 74.89 272.484 74.4286 271.982 74.0012C271.141 73.2753 270.774 72.1694 269.981 71.4095C269.011 70.9278 267.64 71.6402 267.416 72.6918C267.409 73.8994 268.034 75.0528 267.796 76.2672C267.66 76.8439 267.823 77.5427 267.443 78.038C266.304 78.4383 265.116 78.6757 263.956 78.9878C263.4 78.3908 262.898 77.7327 262.47 77.0407C261.941 76.1451 261.914 75.0053 261.269 74.1708C260.455 73.4856 258.963 73.8859 258.515 74.8289C258.264 75.8195 258.447 76.8778 258.135 77.8616C257.898 78.5536 257.674 79.2592 257.307 79.9037C256.079 80.1073 254.79 79.9105 253.542 79.9851C253.162 79.2185 252.836 78.4247 252.606 77.597C252.456 76.6675 252.517 75.7041 252.307 74.7814C251.805 73.7977 250.251 73.7163 249.485 74.4422C249.139 74.8764 249.017 75.4463 248.833 75.9619C248.474 77.1764 247.761 78.4043 246.744 79.1506C245.597 78.9335 244.451 78.6282 243.352 78.228C242.972 77.7463 243.107 77.0746 243.012 76.5115C242.809 75.2835 243.318 74.103 243.413 72.8953C243.175 71.9794 242.103 71.5113 241.221 71.6538C240.394 71.7827 240.115 72.6918 239.654 73.2685C239.118 74.2183 238.216 74.8628 237.368 75.5209C237.062 75.8534 236.648 75.582 236.336 75.4192C235.454 74.9375 234.6 74.4151 233.751 73.8927C233.833 72.9564 233.928 71.9998 234.22 71.1042C234.586 70.263 235.041 69.4556 235.366 68.594C235.061 67.5899 233.935 66.735 232.87 67.1149C231.838 67.7527 231.106 68.8246 229.932 69.2453C229.314 69.4827 228.487 70.1408 227.917 69.4759C227.218 68.7839 226.485 68.1123 225.841 67.366C225.664 66.7757 226.126 66.2058 226.322 65.6631C226.736 64.625 227.591 63.8787 228.263 63.0239C229.165 61.9587 227.815 60.3847 226.621 60.4322C225.563 60.7647 224.667 61.5245 223.554 61.7009C222.903 61.8095 222.252 61.9587 221.594 61.9655C220.895 61.1107 220.427 60.093 219.864 59.1567C219.443 58.4851 220.244 57.9762 220.569 57.4742C221.316 56.3615 222.638 55.907 223.568 54.9843C224.206 53.8309 222.971 51.9991 221.614 52.474C220.576 52.6572 219.538 53.0032 218.48 52.7657C217.984 52.6504 217.353 52.8064 216.953 52.4265C216.6 51.3003 216.254 50.1537 216.058 48.98C216.431 48.444 217.034 48.1251 217.55 47.7452C218.48 47.0396 219.694 46.965 220.685 46.3815C221.444 45.7845 221.18 44.604 220.698 43.912C220.25 43.2878 219.402 43.4235 218.731 43.3556C217.448 43.3556 216.22 42.8739 215.087 42.3176C214.938 41.0828 215.019 39.8141 215.047 38.5658C215.508 38.1858 216.132 38.0773 216.675 37.8398C217.794 37.3446 219.056 37.6092 220.223 37.2971C221.2 36.7815 221.288 35.2346 220.549 34.4815C220.06 34.1219 219.457 33.9862 218.893 33.7827C217.686 33.4435 216.641 32.6633 215.773 31.7813C216.139 30.6415 216.315 29.4474 216.77 28.3483C217.265 27.9752 217.944 28.1041 218.52 28.0091C219.735 27.8259 220.902 28.328 222.109 28.423C223.412 28.0566 223.921 25.8856 222.591 25.2275C221.349 24.5083 220.257 23.572 219.47 22.3644C219.111 22.0048 219.484 21.5435 219.647 21.1975C220.142 20.4037 220.522 19.5285 221.126 18.8161C221.662 18.6736 222.225 18.9043 222.767 18.9586C224.104 19.0807 225.176 19.9491 226.411 20.3698C227.408 20.0441 228.249 18.9518 227.883 17.8866C227.259 16.835 226.173 16.1091 225.746 14.9286C225.515 14.318 224.857 13.4835 225.508 12.9136C226.207 12.2216 226.879 11.5024 227.612 10.8443C227.72 10.8308 227.944 10.8104 228.053 10.8036C229.138 11.1835 230.224 11.6585 231.051 12.4794C231.608 12.9136 232.096 13.6192 232.87 13.592C233.751 13.3885 234.559 12.5812 234.559 11.6381C234.247 10.5662 233.473 9.6706 233.297 8.55795C233.195 7.90663 233.026 7.26211 233.046 6.60401C233.718 5.9527 234.633 5.62026 235.407 5.10464C235.753 4.94181 236.18 4.54831 236.574 4.83326C237.53 5.51849 238.48 6.28514 239.064 7.32995C239.498 7.91342 239.864 8.86325 240.753 8.74791C241.554 8.67328 242.415 8.13731 242.585 7.30281C242.585 6.10196 241.961 4.94859 242.198 3.73417C242.334 3.15749 242.178 2.46547 242.537 1.96341C243.684 1.55634 244.878 1.31889 246.052 1.0068C246.554 1.56991 247.022 2.17373 247.436 2.81148C248.04 3.73417 248.06 4.94181 248.732 5.82379C249.546 6.50224 251.025 6.10874 251.479 5.17248C251.751 4.12767 251.52 3.00144 251.907 1.9702C252.144 1.33924 252.327 0.667575 252.701 0.0976776ZM251.161 7.73702C248.189 8.08303 245.251 8.83611 242.483 9.98269C235.984 12.6626 230.461 17.5745 226.872 23.606C222.693 30.6211 221.451 39.2442 223.208 47.1957C224.606 53.6206 228.093 59.5367 232.944 63.9669C238.514 69.2181 246.045 72.2847 253.691 72.5358C260.313 72.8207 267.036 71.0432 272.579 67.3931C278.821 63.2953 283.726 57.0875 285.951 49.9298C288.177 42.8807 287.953 35.065 285.253 28.1787C282.729 21.6724 277.986 16.1023 272.097 12.3912C265.924 8.49689 258.4 6.90253 251.161 7.73702Z" fill="#1F1E1E"/>
<path d="M258.027 19.4674C258.258 19.2231 258.502 18.9924 258.753 18.7686C258.848 19.1688 258.936 19.5691 259.031 19.9694C259.262 19.5759 259.513 19.196 259.798 18.8432C260.008 19.2638 260.245 19.6777 260.469 20.0915C260.001 20.5325 259.452 20.4782 259.004 20.0508C258.95 20.1322 258.834 20.2951 258.78 20.3765C258.461 20.234 258.149 20.0983 257.83 19.9694C257.884 19.8405 257.979 19.5895 258.027 19.4674ZM258.312 19.5895C258.407 19.7048 258.407 19.7048 258.312 19.5895ZM259.56 19.7998C260.272 19.4334 259.587 20.6004 259.56 19.7998Z" fill="#FAFCFD"/>
<path d="M253.596 43.7695L253.643 43.7763L253.976 43.8035C252.944 45.4046 251.757 46.8972 250.678 48.4712L250.638 48.7358C250.631 48.8172 250.624 48.98 250.617 49.0614C250.529 49.0479 250.353 49.0343 250.264 49.0207C250 49.3803 249.749 49.7467 249.505 50.1198C249.627 50.1402 249.871 50.1877 249.993 50.2148L249.966 50.2555C249.81 50.4658 249.64 50.6626 249.464 50.8593C249.477 50.6897 249.498 50.3437 249.505 50.1673C249.145 50.5405 248.826 50.9611 248.65 51.4564C248.528 51.4767 248.283 51.5174 248.161 51.5378H248.046C249.925 48.9732 251.75 46.3612 253.596 43.7695Z" fill="#FAFCFD"/>
<path d="M254.879 14.6025C269.032 14.6025 280.497 26.0141 280.497 40.0919C280.497 54.1629 269.032 65.5745 254.879 65.5745C240.733 65.5745 229.268 54.1629 229.268 40.0919C229.268 26.0141 240.733 14.6025 254.879 14.6025Z" fill="url(#paint0_linear_0_1)"/>
<mask id="mask0_0_1" style="mask-type:luminance" maskUnits="userSpaceOnUse" x="229" y="14" width="52" height="52">
<path d="M254.879 14.6025C269.032 14.6025 280.497 26.0141 280.497 40.0919C280.497 54.1629 269.032 65.5745 254.879 65.5745C240.733 65.5745 229.268 54.1629 229.268 40.0919C229.268 26.0141 240.733 14.6025 254.879 14.6025Z" fill="white"/>
</mask>
<g mask="url(#mask0_0_1)">
<path d="M228.758 62.854C285.836 62.854 285.836 62.854 285.836 62.854" stroke="white" stroke-width="0.853415"/>
<path d="M228.168 59.8076C285.239 59.8076 285.239 59.8076 285.239 59.8076" stroke="white" stroke-width="0.853415"/>
<path d="M227.761 57.2432C284.832 57.2432 284.832 57.2432 284.832 57.2432" stroke="white" stroke-width="0.853415"/>
<path d="M227.489 55.2217C284.567 55.2217 284.567 55.2217 284.567 55.2217" stroke="white" stroke-width="0.853415"/>
<path d="M227.266 53.5796C284.337 53.5796 284.337 53.5796 284.337 53.5796" stroke="white" stroke-width="0.853415"/>
<path d="M227.089 52.0806C284.16 52.0806 284.16 52.0806 284.16 52.0806" stroke="white" stroke-width="0.853415"/>
<path d="M226.865 50.8662C283.936 50.8662 283.936 50.8662 283.936 50.8662" stroke="white" stroke-width="0.853415"/>
<path d="M226.444 49.4209C283.516 49.4209 283.516 49.4209 283.516 49.4209" stroke="white" stroke-width="0.853415"/>
<path d="M228.697 42.5547C280.287 42.5547 280.287 42.5547 280.287 42.5547" stroke="white" stroke-width="3.65854"/>
<path d="M231.438 35.3701C231.438 42.1275 231.438 42.1275 231.438 42.1275" stroke="white" stroke-width="0.853415"/>
<path d="M233.072 34.9971C233.072 42.1615 233.072 42.1615 233.072 42.1615" stroke="white" stroke-width="0.853415"/>
<path d="M234.708 34.4067C234.708 42.2021 234.708 42.2021 234.708 42.2021" stroke="white" stroke-width="0.853415"/>
<path d="M236.343 33.667C236.343 42.2426 236.343 42.2426 236.343 42.2426" stroke="white" stroke-width="0.853415"/>
<path d="M237.979 32.6084C237.979 42.2831 237.979 42.2831 237.979 42.2831" stroke="white" stroke-width="0.853415"/>
<path d="M239.613 31.1089C239.613 49.4202 239.613 49.4202 239.613 49.4202" stroke="white" stroke-width="0.853415"/>
<path d="M241.248 32.3032C241.248 42.3578 241.248 42.3578 241.248 42.3578" stroke="white" stroke-width="0.853415"/>
<path d="M242.884 33.3955C242.884 42.3985 242.884 42.3985 242.884 42.3985" stroke="white" stroke-width="0.853415"/>
<path d="M244.519 34.291C244.519 42.4392 244.519 42.4392 244.519 42.4392" stroke="white" stroke-width="0.853415"/>
<path d="M246.153 34.9629C246.153 42.4801 246.153 42.4801 246.153 42.4801" stroke="white" stroke-width="0.853415"/>
<path d="M247.788 35.5459C247.788 42.5136 247.788 42.5136 247.788 42.5136" stroke="white" stroke-width="0.853415"/>
<path d="M249.424 36.0752C249.424 42.5544 249.424 42.5544 249.424 42.5544" stroke="white" stroke-width="0.853415"/>
<path d="M251.059 36.4556C251.059 42.5955 251.059 42.5955 251.059 42.5955" stroke="white" stroke-width="0.853415"/>
<path d="M252.693 36.5571C252.693 42.636 252.693 42.636 252.693 42.636" stroke="white" stroke-width="0.853415"/>
<path d="M254.329 36.8423C254.329 42.677 254.329 42.677 254.329 42.677" stroke="white" stroke-width="0.853415"/>
<path d="M255.964 36.8828C255.964 42.7107 255.964 42.7107 255.964 42.7107" stroke="white" stroke-width="0.853415"/>
<path d="M257.6 36.7271C257.6 42.7517 257.6 42.7517 257.6 42.7517" stroke="white" stroke-width="0.853415"/>
<path d="M259.233 36.4014C259.233 42.7924 259.233 42.7924 259.233 42.7924" stroke="white" stroke-width="0.853415"/>
<path d="M277.179 35.458C277.179 42.4053 277.179 42.4053 277.179 42.4053" stroke="white" stroke-width="0.853415"/>
<path d="M275.544 34.8882C275.544 42.4393 275.544 42.4393 275.544 42.4393" stroke="white" stroke-width="0.853415"/>
<path d="M273.908 34.2368C273.908 42.48 273.908 42.48 273.908 42.48" stroke="white" stroke-width="0.853415"/>
<path d="M272.273 33.5381C272.273 42.5208 272.273 42.5208 272.273 42.5208" stroke="white" stroke-width="0.853415"/>
<path d="M270.639 32.5C270.639 42.5614 270.639 42.5614 270.639 42.5614" stroke="white" stroke-width="0.853415"/>
<path d="M269.004 31.3877C269.004 49.4209 269.004 49.4209 269.004 49.4209" stroke="white" stroke-width="0.853415"/>
<path d="M267.369 32.5811C267.369 42.6357 267.369 42.6357 267.369 42.6357" stroke="white" stroke-width="0.853415"/>
<path d="M265.733 33.6738C265.733 42.6769 265.733 42.6769 265.733 42.6769" stroke="white" stroke-width="0.853415"/>
<path d="M264.099 34.5693C264.099 42.7175 264.099 42.7175 264.099 42.7175" stroke="white" stroke-width="0.853415"/>
<path d="M262.463 35.2412C262.463 42.7584 262.463 42.7584 262.463 42.7584" stroke="white" stroke-width="0.853415"/>
<path d="M260.828 35.8247C260.828 42.7924 260.828 42.7924 260.828 42.7924" stroke="white" stroke-width="0.853415"/>
<path d="M278.713 35.5732C278.713 42.5138 278.713 42.5138 278.713 42.5138" stroke="white" stroke-width="0.853415"/>
<path d="M229.349 35.6953C229.349 35.6953 236.235 35.0169 239.607 30.9326" stroke="white" stroke-width="1.09732"/>
<path d="M239.389 30.9463C239.389 30.9463 246.607 37.0998 255.02 36.7402" stroke="white" stroke-width="1.09732"/>
<path d="M269.099 31.3057C269.099 31.3057 261.304 37.968 253.447 36.7333" stroke="white" stroke-width="1.09732"/>
<path d="M280.341 35.933C280.341 35.933 273.143 34.9289 268.896 31.2788" stroke="white" stroke-width="1.09732"/>
</g>
<path d="M254.879 14.6025C269.032 14.6025 280.497 26.0141 280.497 40.0919C280.497 54.1629 269.032 65.5745 254.879 65.5745C240.733 65.5745 229.268 54.1629 229.268 40.0919C229.268 26.0141 240.733 14.6025 254.879 14.6025Z" stroke="white" stroke-width="1.21951"/>
<path d="M237.755 58.8108C237.755 58.8108 237.87 59.0822 238.148 58.8854C238.42 58.6819 250.008 45.9203 250.008 45.9203L247.999 51.972C247.999 51.972 247.809 53.0304 248.936 51.4564C250.069 49.8824 270.877 20.7905 270.917 20.7633C270.951 20.7362 271.263 19.4064 269.879 21.0551C268.489 22.6969 256.453 36.6323 256.453 36.6323L257.525 32.3106C257.525 32.3106 258.088 30.187 256.595 32.4259C255.11 34.6648 237.992 58.2206 237.992 58.2206C237.992 58.2206 237.748 58.5801 237.748 58.6955C237.755 58.8108 237.755 58.8108 237.755 58.8108Z" fill="url(#paint1_linear_0_1)" stroke="#FFF8C7" stroke-width="0.609756"/>
<defs>
<linearGradient id="paint0_linear_0_1" x1="255.434" y1="9.49958" x2="254.328" y2="70.6784" gradientUnits="userSpaceOnUse">
<stop stop-color="#004EB5"/>
<stop offset="0.521569" stop-color="#3F82CB"/>
<stop offset="1" stop-color="#7FB7E2"/>
</linearGradient>
<linearGradient id="paint1_linear_0_1" x1="271.796" y1="19.8799" x2="237.215" y2="58.6099" gradientUnits="userSpaceOnUse">
<stop stop-color="#E30000"/>
<stop offset="1" stop-color="#AB0600"/>
</linearGradient>
</defs>
</svg>
